<svg xmlns="http://www.w3.org/2000/svg" viewBox="0 0 800 500" fill="none">
  <rect width="800" height="500" fill="#1A1A1A"/>
  <rect x="80" y="80" width="280" height="160" rx="12" fill="#9B59F0" opacity="0.1"/>
  <rect x="440" y="80" width="280" height="160" rx="12" fill="#B07AF5" opacity="0.08"/>
  <rect x="80" y="270" width="280" height="160" rx="12" fill="#7B3FD0" opacity="0.1"/>
  <rect x="440" y="270" width="280" height="160" rx="12" fill="#9B59F0" opacity="0.08"/>
  <rect x="110" y="120" width="120" height="6" rx="3" fill="#B07AF5" opacity="0.3"/>
  <rect x="110" y="140" width="80" height="6" rx="3" fill="#9B59F0" opacity="0.2"/>
  <rect x="470" y="120" width="100" height="6" rx="3" fill="#9B59F0" opacity="0.25"/>
  <rect x="470" y="140" width="140" height="6" rx="3" fill="#B07AF5" opacity="0.2"/>
  <rect x="110" y="310" width="140" height="6" rx="3" fill="#9B59F0" opacity="0.25"/>
  <rect x="110" y="330" width="100" height="6" rx="3" fill="#7B3FD0" opacity="0.2"/>
  <rect x="470" y="310" width="120" height="6" rx="3" fill="#B07AF5" opacity="0.25"/>
  <rect x="470" y="330" width="90" height="6" rx="3" fill="#9B59F0" opacity="0.2"/>
  <text x="400" y="460" text-anchor="middle" fill="#444" font-family="sans-serif" font-size="14">Wywiady</text>
</svg>
